<?xml version="1.0" encoding="utf-8" ?>
<!DOCTYPE svg PUBLIC "-//W3C//DTD SVG 1.1//EN" "http://www.w3.org/Graphics/SVG/1.1/DTD/svg11.dtd">
<svg height="816" version="1.1" width="1348" xmlns="http://www.w3.org/2000/svg">
<rect fill="#ffffff" height="279" stroke="#ffffff" stroke-width="1" width="156" x="614" y="30"/>
<rect fill="none" height="279" stroke="#000000" stroke-width="1" width="156" x="614" y="30"/>
<text font-family="Dialog" font-size="12" x="659" y="44">
Controlador</text>
<rect fill="#000000" height="1" stroke="#000000" stroke-width="1" width="156" x="614" y="54"/>
<text font-family="Dialog" font-size="12" x="618" y="69">
Puntuacion : Integer</text>
<text font-family="Dialog" font-size="12" x="618" y="86">
Nombre_jugador : String</text>
<text font-family="Dialog" font-size="12" x="618" y="103">
Modo : Integer</text>
<text font-family="Dialog" font-size="12" x="618" y="120">
Nivel : Integer</text>
<text font-family="Dialog" font-size="12" x="618" y="137">
Monedas_juego : Integer</text>
<text font-family="Dialog" font-size="12" x="618" y="154">
Puntuacion_Mayor : Integer</text>
<rect fill="#000000" height="1" stroke="#000000" stroke-width="1" width="156" x="614" y="164"/>
<text font-family="Dialog" font-size="12" x="618" y="179">
Iniciar_juego()</text>
<text font-family="Dialog" font-size="12" x="618" y="196">
Finalizar_juego()</text>
<text font-family="Dialog" font-size="12" x="618" y="213">
Inicializar_objetos()</text>
<text font-family="Dialog" font-size="12" x="618" y="230">
Modo_de_juego()</text>
<text font-family="Dialog" font-size="12" x="618" y="247">
Dibujar_elemntos()</text>
<text font-family="Dialog" font-size="12" x="618" y="264">
Eventos_touch()</text>
<text font-family="Dialog" font-size="12" x="618" y="281">
Guardar_Partida()</text>
<text font-family="Dialog" font-size="12" x="618" y="298">
Cargar_partida()</text>
<rect fill="#ffffff" height="216" stroke="#ffffff" stroke-width="1" width="152" x="662" y="518"/>
<rect fill="none" height="216" stroke="#000000" stroke-width="1" width="152" x="662" y="518"/>
<text font-family="Dialog" font-size="12" x="711" y="532">
Insecto_1</text>
<rect fill="#000000" height="1" stroke="#000000" stroke-width="1" width="152" x="662" y="542"/>
<text font-family="Dialog" font-size="12" x="666" y="557">
x : Double</text>
<text font-family="Dialog" font-size="12" x="666" y="574">
y : Double</text>
<text font-family="Dialog" font-size="12" x="666" y="591">
Sprite : Integer</text>
<text font-family="Dialog" font-size="12" x="666" y="608">
Velocidad : Integer</text>
<text font-family="Dialog" font-size="12" x="666" y="625">
Vida : Integer</text>
<text font-family="Dialog" font-size="12" x="666" y="642">
Factor_comida : Integer</text>
<rect fill="#000000" height="1" stroke="#000000" stroke-width="1" width="152" x="662" y="654"/>
<text font-family="Dialog" font-size="12" x="666" y="669">
Crear()</text>
<text font-family="Dialog" font-size="12" x="666" y="686">
Destruir()</text>
<text font-family="Dialog" font-size="12" x="666" y="703">
Ruta()</text>
<text font-family="Dialog" font-size="12" x="666" y="720">
Acciones()</text>
<rect fill="#ffffff" height="172" stroke="#ffffff" stroke-width="1" width="160" x="886" y="294"/>
<rect fill="none" height="172" stroke="#000000" stroke-width="1" width="160" x="886" y="294"/>
<text font-family="Dialog" font-size="12" x="923" y="328">
Insecto_comun</text>
<text font-family="Dialog" font-size="12" x="928" y="309">
&lt;&lt;interface&gt;&gt;</text>
<rect fill="#000000" height="1" stroke="#000000" stroke-width="1" width="160" x="886" y="338"/>
<text font-family="Dialog" font-size="12" x="890" y="353">
Colision_tesoro()</text>
<text font-family="Dialog" font-size="12" x="890" y="370">
Colision_objeto()</text>
<text font-family="Dialog" font-size="12" x="890" y="387">
Touch()</text>
<text font-family="Dialog" font-size="12" x="890" y="404">
Destruir()</text>
<text font-family="Dialog" font-size="12" x="890" y="421">
Crear()</text>
<text font-family="Dialog" font-size="12" x="890" y="438">
Cambiar_curso()</text>
<line fill="#000000" stroke="#000000" stroke-width="1" x1="813" x2="817" y1="518" y2="516"/>
<line fill="#000000" stroke="#000000" stroke-width="1" x1="821" x2="825" y1="513" y2="510"/>
<line fill="#000000" stroke="#000000" stroke-width="1" x1="829" x2="833" y1="507" y2="504"/>
<line fill="#000000" stroke="#000000" stroke-width="1" x1="837" x2="841" y1="501" y2="498"/>
<line fill="#000000" stroke="#000000" stroke-width="1" x1="845" x2="849" y1="495" y2="492"/>
<line fill="#000000" stroke="#000000" stroke-width="1" x1="853" x2="857" y1="489" y2="486"/>
<line fill="#000000" stroke="#000000" stroke-width="1" x1="861" x2="865" y1="483" y2="480"/>
<line fill="#000000" stroke="#000000" stroke-width="1" x1="869" x2="873" y1="477" y2="474"/>
<line fill="#000000" stroke="#000000" stroke-width="1" x1="877" x2="881" y1="471" y2="468"/>
<polygon fill="#ffffff" points="886,465 880,477 872,466" stroke="#ffffff" stroke-width="1"/>
<polygon fill="none" points="886,465 880,477 872,466" stroke="#000000" stroke-width="1"/>
<text font-family="Dialog" font-size="12" x="792" y="471">
&lt;&lt;realize&gt;&gt;</text>
<rect fill="#ffffff" height="224" stroke="#ffffff" stroke-width="1" width="152" x="886" y="518"/>
<rect fill="none" height="224" stroke="#000000" stroke-width="1" width="152" x="886" y="518"/>
<text font-family="Dialog" font-size="12" x="935" y="532">
Insecto_2</text>
<rect fill="#000000" height="1" stroke="#000000" stroke-width="1" width="152" x="886" y="542"/>
<text font-family="Dialog" font-size="12" x="890" y="557">
x : Double</text>
<text font-family="Dialog" font-size="12" x="890" y="574">
y : Double</text>
<text font-family="Dialog" font-size="12" x="890" y="591">
Sprite : Integer</text>
<text font-family="Dialog" font-size="12" x="890" y="608">
Velocidad : Integer</text>
<text font-family="Dialog" font-size="12" x="890" y="625">
Vida : Integer</text>
<text font-family="Dialog" font-size="12" x="890" y="642">
Factor_comida : Integer</text>
<rect fill="#000000" height="1" stroke="#000000" stroke-width="1" width="152" x="886" y="658"/>
<text font-family="Dialog" font-size="12" x="890" y="673">
Crear()</text>
<text font-family="Dialog" font-size="12" x="890" y="690">
Destruir()</text>
<text font-family="Dialog" font-size="12" x="890" y="707">
Ruta()</text>
<text font-family="Dialog" font-size="12" x="890" y="724">
Acciones()</text>
<line fill="#000000" stroke="#000000" stroke-width="1" x1="974" x2="974" y1="518" y2="513"/>
<line fill="#000000" stroke="#000000" stroke-width="1" x1="974" x2="974" y1="508" y2="503"/>
<line fill="#000000" stroke="#000000" stroke-width="1" x1="974" x2="974" y1="498" y2="493"/>
<line fill="#000000" stroke="#000000" stroke-width="1" x1="974" x2="974" y1="488" y2="483"/>
<line fill="#000000" stroke="#000000" stroke-width="1" x1="974" x2="974" y1="478" y2="473"/>
<line fill="#000000" stroke="#000000" stroke-width="1" x1="974" x2="974" y1="468" y2="465"/>
<polygon fill="#ffffff" points="974,465 981,477 967,477" stroke="#ffffff" stroke-width="1"/>
<polygon fill="none" points="974,465 981,477 967,477" stroke="#000000" stroke-width="1"/>
<text font-family="Dialog" font-size="12" x="895" y="505">
&lt;&lt;realize&gt;&gt;</text>
<rect fill="#ffffff" height="163" stroke="#ffffff" stroke-width="1" width="144" x="342" y="70"/>
<rect fill="none" height="163" stroke="#000000" stroke-width="1" width="144" x="342" y="70"/>
<text font-family="Dialog" font-size="12" x="395" y="84">
Tienda</text>
<rect fill="#000000" height="1" stroke="#000000" stroke-width="1" width="144" x="342" y="93"/>
<text font-family="Dialog" font-size="12" x="346" y="108">
Monedas : Integer</text>
<text font-family="Dialog" font-size="12" x="346" y="124">
Online : Boolean</text>
<text font-family="Dialog" font-size="12" x="346" y="140">
ariticulos : Array</text>
<rect fill="#000000" height="1" stroke="#000000" stroke-width="1" width="144" x="342" y="154"/>
<text font-family="Dialog" font-size="12" x="346" y="169">
Compara_objeto()</text>
<text font-family="Dialog" font-size="12" x="346" y="185">
Salir()</text>
<text font-family="Dialog" font-size="12" x="346" y="201">
Guardar()</text>
<text font-family="Dialog" font-size="12" x="346" y="217">
In-App_Purchase()</text>
<polyline fill="none" points="614,94 485,94" stroke="#000000" stroke-width="1"/>
<polygon fill="#ffffff" points="614,94 604,99 594,94 604,89" stroke="#ffffff" stroke-width="1"/>
<polygon fill="none" points="614,94 604,99 594,94 604,89" stroke="#000000" stroke-width="1"/>
<line fill="#000000" stroke="#000000" stroke-width="1" x1="497" x2="485" y1="87" y2="94"/>
<line fill="#000000" stroke="#000000" stroke-width="1" x1="497" x2="485" y1="101" y2="94"/>
<rect fill="#ffffff" height="224" stroke="#ffffff" stroke-width="1" width="144" x="1102" y="518"/>
<rect fill="none" height="224" stroke="#000000" stroke-width="1" width="144" x="1102" y="518"/>
<text font-family="Dialog" font-size="12" x="1139" y="532">
Insecto_3...n</text>
<rect fill="#000000" height="1" stroke="#000000" stroke-width="1" width="144" x="1102" y="542"/>
<text font-family="Dialog" font-size="12" x="1106" y="557">
x : Double</text>
<text font-family="Dialog" font-size="12" x="1106" y="574">
y : Double</text>
<text font-family="Dialog" font-size="12" x="1106" y="591">
Sprite : Integer</text>
<text font-family="Dialog" font-size="12" x="1106" y="608">
Velocidad : Integer</text>
<text font-family="Dialog" font-size="12" x="1106" y="625">
Vida : Integer</text>
<text font-family="Dialog" font-size="12" x="1106" y="642">
Factor_comida : Integer</text>
<rect fill="#000000" height="1" stroke="#000000" stroke-width="1" width="144" x="1102" y="658"/>
<text font-family="Dialog" font-size="12" x="1106" y="673">
Crear()</text>
<text font-family="Dialog" font-size="12" x="1106" y="690">
Destruir()</text>
<text font-family="Dialog" font-size="12" x="1106" y="707">
Ruta()</text>
<text font-family="Dialog" font-size="12" x="1106" y="724">
Acciones()</text>
<line fill="#000000" stroke="#000000" stroke-width="1" x1="1102" x2="1099" y1="518" y2="515"/>
<line fill="#000000" stroke="#000000" stroke-width="1" x1="1095" x2="1091" y1="512" y2="508"/>
<line fill="#000000" stroke="#000000" stroke-width="1" x1="1088" x2="1084" y1="505" y2="501"/>
<line fill="#000000" stroke="#000000" stroke-width="1" x1="1080" x2="1077" y1="498" y2="494"/>
<line fill="#000000" stroke="#000000" stroke-width="1" x1="1073" x2="1069" y1="491" y2="488"/>
<line fill="#000000" stroke="#000000" stroke-width="1" x1="1065" x2="1062" y1="484" y2="481"/>
<line fill="#000000" stroke="#000000" stroke-width="1" x1="1058" x2="1054" y1="477" y2="474"/>
<line fill="#000000" stroke="#000000" stroke-width="1" x1="1051" x2="1047" y1="470" y2="467"/>
<polygon fill="#ffffff" points="1045,465 1058,468 1049,478" stroke="#ffffff" stroke-width="1"/>
<polygon fill="none" points="1045,465 1058,468 1049,478" stroke="#000000" stroke-width="1"/>
<text font-family="Dialog" font-size="12" x="1074" y="471">
&lt;&lt;realize&gt;&gt;</text>
<rect fill="#ffffff" height="160" stroke="#ffffff" stroke-width="1" width="176" x="878" y="22"/>
<rect fill="none" height="160" stroke="#000000" stroke-width="1" width="176" x="878" y="22"/>
<text font-family="Dialog" font-size="12" x="952" y="36">
Nivel</text>
<rect fill="#000000" height="1" stroke="#000000" stroke-width="1" width="176" x="878" y="46"/>
<text font-family="Dialog" font-size="12" x="882" y="61">
ancho : Integer</text>
<text font-family="Dialog" font-size="12" x="882" y="78">
alto : Integer</text>
<text font-family="Dialog" font-size="12" x="882" y="95">
Punteo_limite : Integer</text>
<text font-family="Dialog" font-size="12" x="882" y="112">
Tipo : Integer</text>
<rect fill="#000000" height="1" stroke="#000000" stroke-width="1" width="176" x="878" y="122"/>
<text font-family="Dialog" font-size="12" x="882" y="137">
Inicializar()</text>
<text font-family="Dialog" font-size="12" x="882" y="154">
Terminar()</text>
<text font-family="Dialog" font-size="12" x="882" y="171">
Ir_al_siguiente()</text>
<polyline fill="none" points="769,94 878,94" stroke="#000000" stroke-width="1"/>
<polygon fill="#ffffff" points="769,94 779,89 789,94 779,99" stroke="#ffffff" stroke-width="1"/>
<polygon fill="none" points="769,94 779,89 789,94 779,99" stroke="#000000" stroke-width="1"/>
<line fill="#000000" stroke="#000000" stroke-width="1" x1="866" x2="878" y1="101" y2="94"/>
<line fill="#000000" stroke="#000000" stroke-width="1" x1="866" x2="878" y1="87" y2="94"/>
<rect fill="#ffffff" height="160" stroke="#ffffff" stroke-width="1" width="152" x="1182" y="230"/>
<rect fill="none" height="160" stroke="#000000" stroke-width="1" width="152" x="1182" y="230"/>
<text font-family="Dialog" font-size="12" x="1238" y="244">
Tesoro</text>
<rect fill="#000000" height="1" stroke="#000000" stroke-width="1" width="152" x="1182" y="254"/>
<text font-family="Dialog" font-size="12" x="1186" y="269">
Sprite : Integer</text>
<text font-family="Dialog" font-size="12" x="1186" y="286">
x : Double</text>
<text font-family="Dialog" font-size="12" x="1186" y="303">
y : Double</text>
<text font-family="Dialog" font-size="12" x="1186" y="320">
Resitencia : Integer</text>
<rect fill="#000000" height="1" stroke="#000000" stroke-width="1" width="152" x="1182" y="330"/>
<text font-family="Dialog" font-size="12" x="1186" y="345">
Crear()</text>
<text font-family="Dialog" font-size="12" x="1186" y="362">
Destruir()</text>
<text font-family="Dialog" font-size="12" x="1186" y="379">
Acciones()</text>
<polyline fill="none" points="1053,181 1182,230" stroke="#000000" stroke-width="1"/>
<polygon fill="#000000" points="1053,181 1064,179 1071,188 1060,189" stroke="#000000" stroke-width="1"/>
<polygon fill="none" points="1053,181 1064,179 1071,188 1060,189" stroke="#000000" stroke-width="1"/>
<line fill="#000000" stroke="#000000" stroke-width="1" x1="1168" x2="1182" y1="232" y2="230"/>
<line fill="#000000" stroke="#000000" stroke-width="1" x1="1173" x2="1182" y1="219" y2="230"/>
<rect fill="#ffffff" height="194" stroke="#ffffff" stroke-width="1" width="128" x="1198" y="14"/>
<rect fill="none" height="194" stroke="#000000" stroke-width="1" width="128" x="1198" y="14"/>
<text font-family="Dialog" font-size="12" x="1235" y="28">
Inventario</text>
<rect fill="#000000" height="1" stroke="#000000" stroke-width="1" width="128" x="1198" y="38"/>
<text font-family="Dialog" font-size="12" x="1202" y="53">
objetos : Array</text>
<text font-family="Dialog" font-size="12" x="1202" y="70">
Cantidad : Integer</text>
<text font-family="Dialog" font-size="12" x="1202" y="87">
x : Double</text>
<text font-family="Dialog" font-size="12" x="1202" y="104">
y : Double</text>
<text font-family="Dialog" font-size="12" x="1202" y="121">
Spirte : Integer</text>
<rect fill="#000000" height="1" stroke="#000000" stroke-width="1" width="128" x="1198" y="131"/>
<text font-family="Dialog" font-size="12" x="1202" y="146">
Usar_Objeto()</text>
<text font-family="Dialog" font-size="12" x="1202" y="163">
Colocar()</text>
<text font-family="Dialog" font-size="12" x="1202" y="180">
Crear()</text>
<text font-family="Dialog" font-size="12" x="1202" y="197">
Destruir()</text>
<rect fill="#ffffff" height="121" stroke="#ffffff" stroke-width="1" width="168" x="326" y="302"/>
<rect fill="none" height="121" stroke="#000000" stroke-width="1" width="168" x="326" y="302"/>
<text font-family="Dialog" font-size="12" x="370" y="336">
Objeto Comun</text>
<text font-family="Dialog" font-size="12" x="372" y="317">
&lt;&lt;interface&gt;&gt;</text>
<rect fill="#000000" height="1" stroke="#000000" stroke-width="1" width="168" x="326" y="346"/>
<text font-family="Dialog" font-size="12" x="330" y="361">
Crear()</text>
<text font-family="Dialog" font-size="12" x="330" y="378">
Destruir()</text>
<text font-family="Dialog" font-size="12" x="330" y="395">
Acciones()</text>
<text font-family="Dialog" font-size="12" x="330" y="412">
Colisiones()</text>
<polyline fill="none" points="414,232 414,302" stroke="#000000" stroke-width="1"/>
<polygon fill="#000000" points="414,232 419,242 414,252 409,242" stroke="#000000" stroke-width="1"/>
<polygon fill="none" points="414,232 419,242 414,252 409,242" stroke="#000000" stroke-width="1"/>
<polyline fill="none" points="1053,70 1198,70" stroke="#000000" stroke-width="1"/>
<polygon fill="#000000" points="1053,70 1063,65 1073,70 1063,75" stroke="#000000" stroke-width="1"/>
<polygon fill="none" points="1053,70 1063,65 1073,70 1063,75" stroke="#000000" stroke-width="1"/>
<line fill="#000000" stroke="#000000" stroke-width="1" x1="1186" x2="1198" y1="77" y2="70"/>
<line fill="#000000" stroke="#000000" stroke-width="1" x1="1186" x2="1198" y1="63" y2="70"/>
<polyline fill="none" points="966,181 966,294" stroke="#000000" stroke-width="1"/>
<polygon fill="#000000" points="966,181 971,191 966,201 961,191" stroke="#000000" stroke-width="1"/>
<polygon fill="none" points="966,181 971,191 966,201 961,191" stroke="#000000" stroke-width="1"/>
<rect fill="#ffffff" height="232" stroke="#ffffff" stroke-width="1" width="144" x="14" y="182"/>
<rect fill="none" height="232" stroke="#000000" stroke-width="1" width="144" x="14" y="182"/>
<text font-family="Dialog" font-size="12" x="61" y="196">
Objeto_1</text>
<rect fill="#000000" height="1" stroke="#000000" stroke-width="1" width="144" x="14" y="206"/>
<text font-family="Dialog" font-size="12" x="18" y="221">
x : Double</text>
<text font-family="Dialog" font-size="12" x="18" y="238">
y : Double</text>
<text font-family="Dialog" font-size="12" x="18" y="255">
Sprite : Integer</text>
<text font-family="Dialog" font-size="12" x="18" y="272">
Precio : Integer</text>
<text font-family="Dialog" font-size="12" x="18" y="289">
Nombre : Integer</text>
<text font-family="Dialog" font-size="12" x="18" y="306">
Descripcion : String</text>
<text font-family="Dialog" font-size="12" x="18" y="323">
Alcance : Integer</text>
<text font-family="Dialog" font-size="12" x="18" y="340">
Timpo : Integer</text>
<rect fill="#000000" height="1" stroke="#000000" stroke-width="1" width="144" x="14" y="352"/>
<text font-family="Dialog" font-size="12" x="18" y="367">
Crear()</text>
<text font-family="Dialog" font-size="12" x="18" y="384">
Destruir()</text>
<text font-family="Dialog" font-size="12" x="18" y="401">
Acciones()</text>
<line fill="#000000" stroke="#000000" stroke-width="1" x1="157" x2="162" y1="326" y2="326"/>
<line fill="#000000" stroke="#000000" stroke-width="1" x1="167" x2="172" y1="326" y2="326"/>
<line fill="#000000" stroke="#000000" stroke-width="1" x1="177" x2="182" y1="326" y2="326"/>
<line fill="#000000" stroke="#000000" stroke-width="1" x1="187" x2="192" y1="326" y2="326"/>
<line fill="#000000" stroke="#000000" stroke-width="1" x1="197" x2="202" y1="326" y2="326"/>
<line fill="#000000" stroke="#000000" stroke-width="1" x1="207" x2="212" y1="326" y2="326"/>
<line fill="#000000" stroke="#000000" stroke-width="1" x1="217" x2="222" y1="326" y2="326"/>
<line fill="#000000" stroke="#000000" stroke-width="1" x1="227" x2="232" y1="326" y2="326"/>
<line fill="#000000" stroke="#000000" stroke-width="1" x1="237" x2="242" y1="326" y2="326"/>
<line fill="#000000" stroke="#000000" stroke-width="1" x1="247" x2="252" y1="326" y2="326"/>
<line fill="#000000" stroke="#000000" stroke-width="1" x1="257" x2="262" y1="326" y2="326"/>
<line fill="#000000" stroke="#000000" stroke-width="1" x1="267" x2="272" y1="326" y2="326"/>
<line fill="#000000" stroke="#000000" stroke-width="1" x1="277" x2="282" y1="326" y2="326"/>
<line fill="#000000" stroke="#000000" stroke-width="1" x1="287" x2="292" y1="326" y2="326"/>
<line fill="#000000" stroke="#000000" stroke-width="1" x1="297" x2="302" y1="326" y2="326"/>
<line fill="#000000" stroke="#000000" stroke-width="1" x1="307" x2="312" y1="326" y2="326"/>
<line fill="#000000" stroke="#000000" stroke-width="1" x1="317" x2="322" y1="326" y2="326"/>
<polygon fill="#ffffff" points="326,326 314,333 314,319" stroke="#ffffff" stroke-width="1"/>
<polygon fill="none" points="326,326 314,333 314,319" stroke="#000000" stroke-width="1"/>
<text font-family="Dialog" font-size="12" x="211" y="318">
&lt;&lt;realize&gt;&gt;</text>
<rect fill="#ffffff" height="234" stroke="#ffffff" stroke-width="1" width="144" x="14" y="526"/>
<rect fill="none" height="234" stroke="#000000" stroke-width="1" width="144" x="14" y="526"/>
<text font-family="Dialog" font-size="12" x="61" y="540">
Objeto_2</text>
<rect fill="#000000" height="1" stroke="#000000" stroke-width="1" width="144" x="14" y="550"/>
<text font-family="Dialog" font-size="12" x="18" y="565">
x : Double</text>
<text font-family="Dialog" font-size="12" x="18" y="582">
y : Double</text>
<text font-family="Dialog" font-size="12" x="18" y="599">
Sprite : Integer</text>
<text font-family="Dialog" font-size="12" x="18" y="616">
Precio : Integer</text>
<text font-family="Dialog" font-size="12" x="18" y="633">
Nombre : String</text>
<text font-family="Dialog" font-size="12" x="18" y="650">
Descripcion : String</text>
<text font-family="Dialog" font-size="12" x="18" y="667">
Alcance : Integer</text>
<text font-family="Dialog" font-size="12" x="18" y="684">
Tiempo : Integer</text>
<rect fill="#000000" height="1" stroke="#000000" stroke-width="1" width="144" x="14" y="697"/>
<text font-family="Dialog" font-size="12" x="18" y="712">
Crear()</text>
<text font-family="Dialog" font-size="12" x="18" y="729">
Destruir()</text>
<text font-family="Dialog" font-size="12" x="18" y="746">
Acciones()</text>
<line fill="#000000" stroke="#000000" stroke-width="1" x1="157" x2="161" y1="526" y2="524"/>
<line fill="#000000" stroke="#000000" stroke-width="1" x1="165" x2="169" y1="521" y2="519"/>
<line fill="#000000" stroke="#000000" stroke-width="1" x1="174" x2="178" y1="516" y2="513"/>
<line fill="#000000" stroke="#000000" stroke-width="1" x1="182" x2="186" y1="511" y2="508"/>
<line fill="#000000" stroke="#000000" stroke-width="1" x1="191" x2="195" y1="505" y2="503"/>
<line fill="#000000" stroke="#000000" stroke-width="1" x1="199" x2="203" y1="500" y2="498"/>
<line fill="#000000" stroke="#000000" stroke-width="1" x1="208" x2="212" y1="495" y2="492"/>
<line fill="#000000" stroke="#000000" stroke-width="1" x1="216" x2="221" y1="490" y2="487"/>
<line fill="#000000" stroke="#000000" stroke-width="1" x1="225" x2="229" y1="484" y2="482"/>
<line fill="#000000" stroke="#000000" stroke-width="1" x1="233" x2="238" y1="479" y2="477"/>
<line fill="#000000" stroke="#000000" stroke-width="1" x1="242" x2="246" y1="474" y2="471"/>
<line fill="#000000" stroke="#000000" stroke-width="1" x1="250" x2="255" y1="469" y2="466"/>
<line fill="#000000" stroke="#000000" stroke-width="1" x1="259" x2="263" y1="463" y2="461"/>
<line fill="#000000" stroke="#000000" stroke-width="1" x1="267" x2="272" y1="458" y2="456"/>
<line fill="#000000" stroke="#000000" stroke-width="1" x1="276" x2="280" y1="453" y2="450"/>
<line fill="#000000" stroke="#000000" stroke-width="1" x1="285" x2="289" y1="448" y2="445"/>
<line fill="#000000" stroke="#000000" stroke-width="1" x1="293" x2="297" y1="442" y2="440"/>
<line fill="#000000" stroke="#000000" stroke-width="1" x1="302" x2="306" y1="437" y2="435"/>
<line fill="#000000" stroke="#000000" stroke-width="1" x1="310" x2="314" y1="432" y2="429"/>
<line fill="#000000" stroke="#000000" stroke-width="1" x1="319" x2="323" y1="427" y2="424"/>
<polygon fill="#ffffff" points="326,422 319,434 312,422" stroke="#ffffff" stroke-width="1"/>
<polygon fill="none" points="326,422 319,434 312,422" stroke="#000000" stroke-width="1"/>
<text font-family="Dialog" font-size="12" x="188" y="453">
&lt;&lt;realize&gt;&gt;</text>
<rect fill="#ffffff" height="228" stroke="#ffffff" stroke-width="1" width="136" x="318" y="574"/>
<rect fill="none" height="228" stroke="#000000" stroke-width="1" width="136" x="318" y="574"/>
<text font-family="Dialog" font-size="12" x="353" y="588">
Objeto_3...n</text>
<rect fill="#000000" height="1" stroke="#000000" stroke-width="1" width="136" x="318" y="598"/>
<text font-family="Dialog" font-size="12" x="322" y="613">
x : Double</text>
<text font-family="Dialog" font-size="12" x="322" y="630">
y : Double</text>
<text font-family="Dialog" font-size="12" x="322" y="647">
Sprite : Integer</text>
<text font-family="Dialog" font-size="12" x="322" y="664">
Precio : Integer</text>
<text font-family="Dialog" font-size="12" x="322" y="681">
Nombre : String</text>
<text font-family="Dialog" font-size="12" x="322" y="698">
Descripcion : String</text>
<text font-family="Dialog" font-size="12" x="322" y="715">
Alcance : Integer</text>
<text font-family="Dialog" font-size="12" x="322" y="732">
Tiempo : Integer</text>
<rect fill="#000000" height="1" stroke="#000000" stroke-width="1" width="136" x="318" y="742"/>
<text font-family="Dialog" font-size="12" x="322" y="757">
Crear()</text>
<text font-family="Dialog" font-size="12" x="322" y="774">
Destruir()</text>
<text font-family="Dialog" font-size="12" x="322" y="791">
Acciones()</text>
<line fill="#000000" stroke="#000000" stroke-width="1" x1="390" x2="390" y1="574" y2="569"/>
<line fill="#000000" stroke="#000000" stroke-width="1" x1="390" x2="390" y1="564" y2="559"/>
<line fill="#000000" stroke="#000000" stroke-width="1" x1="390" x2="390" y1="554" y2="549"/>
<line fill="#000000" stroke="#000000" stroke-width="1" x1="390" x2="390" y1="544" y2="539"/>
<line fill="#000000" stroke="#000000" stroke-width="1" x1="390" x2="390" y1="534" y2="529"/>
<line fill="#000000" stroke="#000000" stroke-width="1" x1="390" x2="390" y1="524" y2="519"/>
<line fill="#000000" stroke="#000000" stroke-width="1" x1="390" x2="390" y1="514" y2="509"/>
<line fill="#000000" stroke="#000000" stroke-width="1" x1="390" x2="390" y1="504" y2="499"/>
<line fill="#000000" stroke="#000000" stroke-width="1" x1="390" x2="390" y1="494" y2="489"/>
<line fill="#000000" stroke="#000000" stroke-width="1" x1="390" x2="390" y1="484" y2="479"/>
<line fill="#000000" stroke="#000000" stroke-width="1" x1="390" x2="390" y1="474" y2="469"/>
<line fill="#000000" stroke="#000000" stroke-width="1" x1="390" x2="390" y1="464" y2="459"/>
<line fill="#000000" stroke="#000000" stroke-width="1" x1="390" x2="390" y1="454" y2="449"/>
<line fill="#000000" stroke="#000000" stroke-width="1" x1="390" x2="390" y1="444" y2="439"/>
<line fill="#000000" stroke="#000000" stroke-width="1" x1="390" x2="390" y1="434" y2="429"/>
<line fill="#000000" stroke="#000000" stroke-width="1" x1="390" x2="390" y1="424" y2="422"/>
<polygon fill="#ffffff" points="390,422 397,434 383,434" stroke="#ffffff" stroke-width="1"/>
<polygon fill="none" points="390,422 397,434 383,434" stroke="#000000" stroke-width="1"/>
<text font-family="Dialog" font-size="12" x="311" y="511">
&lt;&lt;realize&gt;&gt;</text>
</svg>
